<svg xmlns="http://www.w3.org/2000/svg" viewBox="0 0 1200 800" role="img"><title>Libros apilados y un libro abierto en una feria</title>
<rect width="1200" height="800" fill="#f6efe4"/>
<path d="M0 60 Q150 140 300 60 Q450 140 600 60 Q750 140 900 60 Q1050 140 1200 60" fill="none" stroke="#1f3b4d" stroke-width="4"/>
<path d="M15 60 l35 0 l-17 55Z" fill="#c2185b" transform="translate(0,30)"/>
<path d="M115 60 l35 0 l-17 55Z" fill="#0e7fa6" transform="translate(0,8)"/>
<path d="M215 60 l35 0 l-17 55Z" fill="#f2c14e" transform="translate(0,30)"/>
<path d="M315 60 l35 0 l-17 55Z" fill="#6fa36a" transform="translate(0,8)"/>
<path d="M415 60 l35 0 l-17 55Z" fill="#e07a3f" transform="translate(0,30)"/>
<path d="M515 60 l35 0 l-17 55Z" fill="#c2185b" transform="translate(0,8)"/>
<path d="M615 60 l35 0 l-17 55Z" fill="#0e7fa6" transform="translate(0,30)"/>
<path d="M715 60 l35 0 l-17 55Z" fill="#f2c14e" transform="translate(0,8)"/>
<path d="M815 60 l35 0 l-17 55Z" fill="#6fa36a" transform="translate(0,30)"/>
<path d="M915 60 l35 0 l-17 55Z" fill="#e07a3f" transform="translate(0,8)"/>
<path d="M1015 60 l35 0 l-17 55Z" fill="#c2185b" transform="translate(0,30)"/>
<path d="M1115 60 l35 0 l-17 55Z" fill="#0e7fa6" transform="translate(0,8)"/>
<g><rect x="140" y="600" width="380" height="70" rx="6" fill="#0e7fa6"/><rect x="170" y="530" width="330" height="70" rx="6" fill="#c2185b"/><rect x="150" y="460" width="360" height="70" rx="6" fill="#f2c14e"/><rect x="190" y="390" width="290" height="70" rx="6" fill="#6fa36a"/>
<g fill="#ffffff" opacity=".6"><rect x="170" y="628" width="200" height="12"/><rect x="200" y="558" width="160" height="12"/><rect x="180" y="488" width="220" height="12"/><rect x="220" y="418" width="140" height="12"/></g></g>
<path d="M620 640 Q800 560 980 640 L980 330 Q800 250 620 330Z" fill="#ffffff" stroke="#1f3b4d" stroke-width="6"/>
<path d="M800 290 L800 600" stroke="#1f3b4d" stroke-width="5"/>
<g stroke="#b9b3a8" stroke-width="8" stroke-linecap="round"><line x1="660" y1="370" x2="770" y2="350"/><line x1="660" y1="410" x2="770" y2="390"/><line x1="660" y1="450" x2="770" y2="430"/><line x1="830" y1="350" x2="940" y2="370"/><line x1="830" y1="390" x2="940" y2="410"/><line x1="830" y1="430" x2="940" y2="450"/></g>
<rect x="580" y="660" width="440" height="40" rx="6" fill="#8a6b43"/></svg>
